<svg xmlns="http://www.w3.org/2000/svg" xmlns:xlink="http://www.w3.org/1999/xlink" viewBox="0 0 128 128"><defs><style>.cls-1{opacity:0.4;}.cls-2{fill:url(#radial-gradient);}.cls-12,.cls-3{stroke:#b3b3b3;stroke-miterlimit:10;}.cls-3{stroke-width:0.7615px;fill:url(#linear-gradient);}.cls-4{fill:url(#linear-gradient-2);}.cls-5{opacity:0.07;}.cls-6,.cls-8{fill:#fff;}.cls-6{stroke:#fff;}.cls-6,.cls-9{stroke-linecap:square;stroke-miterlimit:3;}.cls-12,.cls-6,.cls-9{stroke-width:1.0153px;}.cls-7{opacity:0.15;}.cls-10,.cls-9{fill:#242424;}.cls-9{stroke:#000;}.cls-11{fill:#383838;}.cls-12{fill:none;}</style><radialGradient id="radial-gradient" cx="1.49" cy="128.3473" r="0.5076" gradientTransform="matrix(99.919, 0, 0, -15.1341, -85.35, 2061.0247)" gradientUnits="userSpaceOnUse"><stop offset="0" stop-color="#3d3d3d"/><stop offset="0.8034" stop-color="#686868" stop-opacity="0.498"/><stop offset="1" stop-color="#686868" stop-opacity="0"/></radialGradient><linearGradient id="linear-gradient" x1="1.5372" y1="128.6213" x2="1.315" y2="128.0691" gradientTransform="matrix(120.499, 0, 0, -120.499, -115.749, 15547.0911)" gradientUnits="userSpaceOnUse"><stop offset="0.0217" stop-color="#fff"/><stop offset="1" stop-color="#f0f0f0"/></linearGradient><linearGradient id="linear-gradient-2" x1="1.6092" y1="128.633" x2="1.0969" y2="127.9335" gradientTransform="matrix(90.579, 0, 0, -120.499, -55.91, 15547.0911)" gradientUnits="userSpaceOnUse"><stop offset="0" stop-color="#464646"/><stop offset="0.9783" stop-color="#1a1a1a"/></linearGradient></defs><title>YinYang</title><g id="Layer_2" data-name="Layer 2"><g class="cls-1"><path id="path3818-0-5-0" class="cls-2" d="M114.2565,118.606c.004,2.7445-9.6635,5.2807-25.3588,6.6532a313.01,313.01,0,0,1-50.7287,0c-15.6952-1.3725-25.3618-3.9087-25.3587-6.6532-.0031-2.7449,9.6635-5.2812,25.3587-6.6537a313.01,313.01,0,0,1,50.7287,0c15.6953,1.3725,25.3628,3.9088,25.3588,6.6537Z"/></g><path id="path2555" class="cls-3" d="M63.7149,1.5127a61.17,61.17,0,1,0,61.1709,61.1708A61.2113,61.2113,0,0,0,63.7149,1.5127Z"/><path id="path2555-1-56-4" class="cls-4" d="M63.8459,123.5891a62.04,62.04,0,0,0,40.6878-15.7751,61.0819,61.0819,0,0,0,17.0294-25.1509,61.83,61.83,0,0,0-8.28-55.9994A61.83,61.83,0,0,0,62.4264,1.8026,34.1739,34.1739,0,0,1,85.9556,13.3552,30.9208,30.9208,0,0,1,93,38.4376,28.2505,28.2505,0,0,1,77.2777,58.9915c-8.0306,3.64-17.4162,3.1172-25.5865,6.432C40.1208,70.1177,32.4683,82.8752,33.4858,95.32c1.0516,12.8605,11.3108,24.8874,24.0332,27.5573a30.7391,30.7391,0,0,0,4.7553.6133"/><g class="cls-5"><circle id="Ellipse" class="cls-6" cx="63.7149" cy="99.153" r="6.7641"/></g><g class="cls-7"><circle class="cls-8" cx="63.7149" cy="99.153" r="6.7641"/></g><circle class="cls-8" cx="63.7149" cy="97.9766" r="6.7641"/><g class="cls-5"><circle class="cls-9" cx="63.7149" cy="34.1409" r="6.7641"/></g><g class="cls-7"><circle class="cls-10" cx="63.7149" cy="34.1409" r="6.7641"/></g><circle class="cls-11" cx="63.7149" cy="32.9646" r="6.7641"/><path id="path2555-1-56-4-2" data-name="path2555-1-56-4" class="cls-12" d="M63.8459,123.5891a62.04,62.04,0,0,0,40.6878-15.7751,61.0819,61.0819,0,0,0,17.0294-25.1509,61.83,61.83,0,0,0-8.28-55.9994C101.6958,10.82,81.062.9664,61.4419,1.5546c8.9546.5821,18.6757,4.9859,24.5137,11.8006A30.9208,30.9208,0,0,1,93,38.4376,28.2505,28.2505,0,0,1,77.2777,58.9915c-8.0306,3.64-17.4162,3.1172-25.5865,6.432C40.1208,70.1177,32.4683,82.8752,33.4858,95.32c1.0516,12.8605,11.2783,25.0472,24.0332,27.5573a49.1294,49.1294,0,0,0,6.3269.7118"/><path id="path2555-2" data-name="path2555" class="cls-12" d="M63.7149,1.5127a61.17,61.17,0,1,0,61.1709,61.1708A61.2113,61.2113,0,0,0,63.7149,1.5127Z"/></g></svg>