<svg id="Layer_1" data-name="Layer 1" xmlns="http://www.w3.org/2000/svg" viewBox="0 0 16 16"><title>Sybolic16</title><path d="M7.9462,2.5611a1.5,1.5,0,1,1-1.4977,1.5A1.4987,1.4987,0,0,1,7.9462,2.5611Z"/><path d="M.45,7.9993A7.5638,7.5638,0,0,1,8,.4389l.0063.0038A3.8019,3.8019,0,0,1,8.196,8.0374c-.0826-.0054-.417-.0054-.5,0a3.8026,3.8026,0,0,0-.83,7.4385A7.57,7.57,0,0,1,.45,7.9993ZM7.9993.0757a7.925,7.925,0,1,0,7.92,7.92A7.9231,7.9231,0,0,0,7.9993.0757Zm-.05,13.27a1.5,1.5,0,1,1,1.49-1.5A1.498,1.498,0,0,1,7.9493,13.3457Z"/></svg>