<svg xmlns="http://www.w3.org/2000/svg" xmlns:xlink="http://www.w3.org/1999/xlink" viewBox="0 0 24 24"><defs><style>.cls-1{opacity:0.4;}.cls-2{fill:url(#radial-gradient);}.cls-12,.cls-3{stroke:#b3b3b3;stroke-miterlimit:10;}.cls-3{stroke-width:0.1411px;fill:url(#linear-gradient);}.cls-4{fill:url(#linear-gradient-2);}.cls-5{opacity:0.07;}.cls-6,.cls-8{fill:#fff;}.cls-6{stroke:#fff;}.cls-6,.cls-9{stroke-linecap:square;stroke-miterlimit:3;}.cls-12,.cls-6,.cls-9{stroke-width:0.1881px;}.cls-7{opacity:0.15;}.cls-10,.cls-9{fill:#242424;}.cls-9{stroke:#000;}.cls-11{fill:#383838;}.cls-12{fill:none;}</style><radialGradient id="radial-gradient" cx="-304.7719" cy="23.8499" r="0.094" gradientTransform="matrix(99.919, 0, 0, -15.1341, 30464.4608, 383.0796)" gradientUnits="userSpaceOnUse"><stop offset="0" stop-color="#3d3d3d"/><stop offset="0.8034" stop-color="#686868" stop-opacity="0.498"/><stop offset="1" stop-color="#686868" stop-opacity="0"/></radialGradient><linearGradient id="linear-gradient" x1="-305.2047" y1="24.0838" x2="-305.2458" y2="23.9815" gradientTransform="matrix(120.499, 0, 0, -120.499, 36789.9203, 2911.195)" gradientUnits="userSpaceOnUse"><stop offset="0.0217" stop-color="#fff"/><stop offset="1" stop-color="#f0f0f0"/></linearGradient><linearGradient id="linear-gradient-2" x1="-304.6239" y1="24.086" x2="-304.7188" y2="23.9564" gradientTransform="matrix(90.579, 0, 0, -120.499, 27609.3677, 2911.195)" gradientUnits="userSpaceOnUse"><stop offset="0" stop-color="#464646"/><stop offset="0.9783" stop-color="#1a1a1a"/></linearGradient></defs><title>YinYang</title><g id="Layer_2" data-name="Layer 2"><g class="cls-1"><path id="path3818-0-5-0" class="cls-2" d="M21.355,22.1334c.0008.5084-1.79.9782-4.6973,1.2324a57.9665,57.9665,0,0,1-9.3968,0c-2.9074-.2542-4.698-.724-4.6974-1.2324s1.79-.9782,4.6974-1.2325a57.9893,57.9893,0,0,1,9.3968,0c2.9073.2543,4.6981.7241,4.6973,1.2325Z"/></g><path id="path2555" class="cls-3" d="M11.9929.4435A11.331,11.331,0,1,0,23.324,11.7746,11.3386,11.3386,0,0,0,11.9929.4435Z"/><path id="path2555-1-56-4" class="cls-4" d="M12.0172,23.0565a11.4922,11.4922,0,0,0,7.5368-2.9221,11.3148,11.3148,0,0,0,3.1545-4.6589A11.4531,11.4531,0,0,0,21.1747,5.1024a11.4529,11.4529,0,0,0-9.42-4.6052,6.33,6.33,0,0,1,4.3585,2.14,5.7278,5.7278,0,0,1,1.3048,4.6461,5.2335,5.2335,0,0,1-2.9123,3.8074c-1.4875.6743-3.2261.5774-4.74,1.1914A5.6311,5.6311,0,0,0,6.3934,17.82a5.8661,5.8661,0,0,0,4.4518,5.1046,5.69,5.69,0,0,0,.8808.1136"/><g class="cls-5"><circle id="Ellipse" class="cls-6" cx="11.9929" cy="18.53" r="1.2529"/></g><g class="cls-7"><circle class="cls-8" cx="11.9929" cy="18.53" r="1.2529"/></g><circle class="cls-8" cx="11.9929" cy="18.3121" r="1.2529"/><g class="cls-5"><circle class="cls-9" cx="11.9929" cy="6.4874" r="1.2529"/></g><g class="cls-7"><circle class="cls-10" cx="11.9929" cy="6.4874" r="1.2529"/></g><circle class="cls-11" cx="11.9929" cy="6.2695" r="1.2529"/><path id="path2555-1-56-4-2" data-name="path2555-1-56-4" class="cls-12" d="M12.0172,23.0565a11.4922,11.4922,0,0,0,7.5368-2.9221,11.3148,11.3148,0,0,0,3.1545-4.6589A11.4531,11.4531,0,0,0,21.1747,5.1024,11.836,11.836,0,0,0,11.5718.4513a6.8008,6.8008,0,0,1,4.5409,2.1859,5.7278,5.7278,0,0,1,1.3048,4.6461,5.2335,5.2335,0,0,1-2.9123,3.8074c-1.4875.6743-3.2261.5774-4.74,1.1914A5.6311,5.6311,0,0,0,6.3934,17.82a5.8264,5.8264,0,0,0,4.4518,5.1046,9.1087,9.1087,0,0,0,1.172.1319"/><path id="path2555-2" data-name="path2555" class="cls-12" d="M11.9929.4435A11.331,11.331,0,1,0,23.324,11.7746,11.3386,11.3386,0,0,0,11.9929.4435Z"/></g></svg>