<svg xmlns="http://www.w3.org/2000/svg" xmlns:xlink="http://www.w3.org/1999/xlink" viewBox="0 0 64 64"><defs><style>.cls-1{opacity:0.4;}.cls-2{fill:url(#radial-gradient);}.cls-12,.cls-3{stroke:#b3b3b3;stroke-miterlimit:10;}.cls-3{stroke-width:0.3789px;fill:url(#linear-gradient);}.cls-4{fill:url(#linear-gradient-2);}.cls-5{opacity:0.07;}.cls-6,.cls-8{fill:#fff;}.cls-6{stroke:#fff;}.cls-6,.cls-9{stroke-linecap:square;stroke-miterlimit:3;}.cls-12,.cls-6,.cls-9{stroke-width:0.5052px;}.cls-7{opacity:0.15;}.cls-10,.cls-9{fill:#242424;}.cls-9{stroke:#000;}.cls-11{fill:#383838;}.cls-12{fill:none;}</style><radialGradient id="radial-gradient" cx="-134.3912" cy="64.0403" r="0.2526" gradientTransform="matrix(99.919, 0, 0, -15.1341, 13460.0739, 1028.4431)" gradientUnits="userSpaceOnUse"><stop offset="0" stop-color="#3d3d3d"/><stop offset="0.8034" stop-color="#686868" stop-opacity="0.498"/><stop offset="1" stop-color="#686868" stop-opacity="0"/></radialGradient><linearGradient id="linear-gradient" x1="-134.5487" y1="64.2898" x2="-134.6593" y2="64.0151" gradientTransform="matrix(120.499, 0, 0, -120.499, 16247.7873, 7771.155)" gradientUnits="userSpaceOnUse"><stop offset="0.0217" stop-color="#fff"/><stop offset="1" stop-color="#f0f0f0"/></linearGradient><linearGradient id="linear-gradient-2" x1="-134.3094" y1="64.2956" x2="-134.5643" y2="63.9476" gradientTransform="matrix(90.579, 0, 0, -120.499, 12210.5462, 7771.155)" gradientUnits="userSpaceOnUse"><stop offset="0" stop-color="#464646"/><stop offset="0.9783" stop-color="#1a1a1a"/></linearGradient></defs><title>YinYang</title><g id="Layer_2" data-name="Layer 2"><g class="cls-1"><path id="path3818-0-5-0" class="cls-2" d="M57.0772,59.2518c.002,1.3655-4.808,2.6274-12.6172,3.31a155.7334,155.7334,0,0,1-25.24,0c-7.8091-.6828-12.6187-1.9447-12.6171-3.31-.0016-1.3658,4.808-2.6277,12.6171-3.3106a155.7561,155.7561,0,0,1,25.24,0c7.8092.6829,12.6192,1.9448,12.6172,3.3106Z"/></g><path id="path2555" class="cls-3" d="M31.93.9923A30.4352,30.4352,0,1,0,62.3658,31.4277,30.4555,30.4555,0,0,0,31.93.9923Z"/><path id="path2555-1-56-4" class="cls-4" d="M31.9956,61.7311A30.8681,30.8681,0,0,0,52.24,53.8823a30.3913,30.3913,0,0,0,8.473-12.5138,30.7632,30.7632,0,0,0-4.12-27.8623,30.7629,30.7629,0,0,0-25.3036-12.37,17.0031,17.0031,0,0,1,11.7069,5.748,15.3849,15.3849,0,0,1,3.5047,12.48,14.056,14.056,0,0,1-7.8224,10.2266c-3.9956,1.8112-8.6654,1.5509-12.73,3.2A15.1252,15.1252,0,0,0,16.89,47.6659a15.7569,15.7569,0,0,0,11.9576,13.711,15.2946,15.2946,0,0,0,2.366.3052"/><g class="cls-5"><circle id="Ellipse" class="cls-6" cx="31.9304" cy="49.573" r="3.3654"/></g><g class="cls-7"><circle class="cls-8" cx="31.9304" cy="49.573" r="3.3654"/></g><circle class="cls-8" cx="31.9304" cy="48.9877" r="3.3654"/><g class="cls-5"><circle class="cls-9" cx="31.9304" cy="17.2264" r="3.3654"/></g><g class="cls-7"><circle class="cls-10" cx="31.9304" cy="17.2264" r="3.3654"/></g><circle class="cls-11" cx="31.9304" cy="16.6411" r="3.3654"/><path id="path2555-1-56-4-2" data-name="path2555-1-56-4" class="cls-12" d="M31.9956,61.7311A30.8681,30.8681,0,0,0,52.24,53.8823a30.3913,30.3913,0,0,0,8.473-12.5138,30.7632,30.7632,0,0,0-4.12-27.8623A31.7921,31.7921,0,0,0,30.8,1.0132,18.2679,18.2679,0,0,1,42.9962,6.8846a15.3849,15.3849,0,0,1,3.5047,12.48,14.056,14.056,0,0,1-7.8224,10.2266c-3.9956,1.8112-8.6654,1.5509-12.73,3.2A15.1252,15.1252,0,0,0,16.89,47.6659c.5232,6.3987,5.6115,12.4621,11.9576,13.711a24.4316,24.4316,0,0,0,3.148.3542"/><path id="path2555-2" data-name="path2555" class="cls-12" d="M31.93.9923A30.4352,30.4352,0,1,0,62.3658,31.4277,30.4555,30.4555,0,0,0,31.93.9923Z"/></g></svg>