<svg xmlns="http://www.w3.org/2000/svg" xmlns:xlink="http://www.w3.org/1999/xlink" viewBox="0 0 32 32"><defs><style>.cls-1{opacity:0.4;}.cls-2{fill:url(#radial-gradient);}.cls-12,.cls-3{stroke:#b3b3b3;stroke-miterlimit:10;}.cls-3{stroke-width:0.1879px;fill:url(#linear-gradient);}.cls-4{fill:url(#linear-gradient-2);}.cls-5{opacity:0.07;}.cls-6,.cls-8{fill:#fff;}.cls-6{stroke:#fff;}.cls-6,.cls-9{stroke-linecap:square;stroke-miterlimit:3;}.cls-12,.cls-6,.cls-9{stroke-width:0.2506px;}.cls-7{opacity:0.15;}.cls-10,.cls-9{fill:#242424;}.cls-9{stroke:#000;}.cls-11{fill:#383838;}.cls-12{fill:none;}</style><radialGradient id="radial-gradient" cx="-264.1182" cy="31.8916" r="0.1253" gradientTransform="matrix(99.919, 0, 0, -15.1341, 26406.3766, 512.1523)" gradientUnits="userSpaceOnUse"><stop offset="0" stop-color="#3d3d3d"/><stop offset="0.8034" stop-color="#686868" stop-opacity="0.498"/><stop offset="1" stop-color="#686868" stop-opacity="0"/></radialGradient><linearGradient id="linear-gradient" x1="-264.4846" y1="32.1249" x2="-264.5395" y2="31.9887" gradientTransform="matrix(120.499, 0, 0, -120.499, 31887.5556, 3883.187)" gradientUnits="userSpaceOnUse"><stop offset="0.0217" stop-color="#fff"/><stop offset="1" stop-color="#f0f0f0"/></linearGradient><linearGradient id="linear-gradient-2" x1="-263.9905" y1="32.1278" x2="-264.117" y2="31.9552" gradientTransform="matrix(90.579, 0, 0, -120.499, 23934.4505, 3883.187)" gradientUnits="userSpaceOnUse"><stop offset="0" stop-color="#464646"/><stop offset="0.9783" stop-color="#1a1a1a"/></linearGradient></defs><title>YinYang</title><g id="Layer_2" data-name="Layer 2"><g class="cls-1"><path id="path3818-0-5-0" class="cls-2" d="M28.4742,29.5019c.001.6774-2.385,1.3033-6.2588,1.6421a77.2653,77.2653,0,0,1-12.52,0c-3.8738-.3388-6.26-.9647-6.2588-1.6421-.0008-.6775,2.385-1.3035,6.2588-1.6422a77.2426,77.2426,0,0,1,12.52,0c3.8738.3387,6.26.9647,6.2588,1.6422Z"/></g><path id="path2555" class="cls-3" d="M16,.602A15.0975,15.0975,0,1,0,31.0977,15.7,15.1077,15.1077,0,0,0,16,.602Z"/><path id="path2555-1-56-4" class="cls-4" d="M16.0323,30.7318a15.3121,15.3121,0,0,0,10.0422-3.8935,15.0762,15.0762,0,0,0,4.2031-6.2075A15.2607,15.2607,0,0,0,28.234,6.81,15.26,15.26,0,0,0,15.682.6735a8.4347,8.4347,0,0,1,5.8072,2.8513,7.6319,7.6319,0,0,1,1.7386,6.1906,6.9728,6.9728,0,0,1-3.88,5.073c-1.982.8984-4.2985.7693-6.315,1.5875a7.503,7.503,0,0,0-4.4933,7.3788,7.8162,7.8162,0,0,0,5.9317,6.8014,7.5877,7.5877,0,0,0,1.1736.1514"/><g class="cls-5"><circle id="Ellipse" class="cls-6" cx="16" cy="24.7007" r="1.6694"/></g><g class="cls-7"><circle class="cls-8" cx="16" cy="24.7007" r="1.6694"/></g><circle class="cls-8" cx="16" cy="24.4103" r="1.6694"/><g class="cls-5"><circle class="cls-9" cx="16" cy="8.655" r="1.6694"/></g><g class="cls-7"><circle class="cls-10" cx="16" cy="8.655" r="1.6694"/></g><circle class="cls-11" cx="16" cy="8.3646" r="1.6694"/><path id="path2555-1-56-4-2" data-name="path2555-1-56-4" class="cls-12" d="M16.0323,30.7318a15.3121,15.3121,0,0,0,10.0422-3.8935,15.0762,15.0762,0,0,0,4.2031-6.2075A15.2607,15.2607,0,0,0,28.234,6.81,15.771,15.771,0,0,0,15.439.6123a9.062,9.062,0,0,1,6.05,2.9125,7.6319,7.6319,0,0,1,1.7386,6.1906,6.9728,6.9728,0,0,1-3.88,5.073c-1.982.8984-4.2985.7693-6.315,1.5875a7.503,7.503,0,0,0-4.4933,7.3788,7.7633,7.7633,0,0,0,5.9317,6.8014,12.1258,12.1258,0,0,0,1.5615.1757"/><path id="path2555-2" data-name="path2555" class="cls-12" d="M16,.602A15.0975,15.0975,0,1,0,31.0977,15.7,15.1077,15.1077,0,0,0,16,.602Z"/></g></svg>