<svg xmlns="http://www.w3.org/2000/svg" xmlns:xlink="http://www.w3.org/1999/xlink" viewBox="0 0 16 16"><defs><style>.cls-1{opacity:0.4;}.cls-2{fill:url(#radial-gradient);}.cls-12,.cls-3{stroke:#b3b3b3;stroke-miterlimit:10;}.cls-3{stroke-width:0.0949px;fill:url(#linear-gradient);}.cls-4{fill:url(#linear-gradient-2);}.cls-5{opacity:0.07;}.cls-6,.cls-8{fill:#fff;}.cls-6{stroke:#fff;}.cls-6,.cls-9{stroke-linecap:square;stroke-miterlimit:3;}.cls-12,.cls-6,.cls-9{stroke-width:0.1265px;}.cls-7{opacity:0.15;}.cls-10,.cls-9{fill:#242424;}.cls-9{stroke:#000;}.cls-11{fill:#383838;}.cls-12{fill:none;}</style><radialGradient id="radial-gradient" cx="-337.1192" cy="15.8048" r="0.0633" gradientTransform="matrix(99.919, 0, 0, -15.1341, 33692.589, 254.0069)" gradientUnits="userSpaceOnUse"><stop offset="0" stop-color="#3d3d3d"/><stop offset="0.8034" stop-color="#686868" stop-opacity="0.498"/><stop offset="1" stop-color="#686868" stop-opacity="0"/></radialGradient><linearGradient id="linear-gradient" x1="-337.604" y1="16.0428" x2="-337.6316" y2="15.974" gradientTransform="matrix(120.499, 0, 0, -120.499, 40689.6575, 1939.203)" gradientUnits="userSpaceOnUse"><stop offset="0.0217" stop-color="#fff"/><stop offset="1" stop-color="#f0f0f0"/></linearGradient><linearGradient id="linear-gradient-2" x1="-336.9593" y1="16.0442" x2="-337.0231" y2="15.9571" gradientTransform="matrix(90.579, 0, 0, -120.499, 30532.694, 1939.203)" gradientUnits="userSpaceOnUse"><stop offset="0" stop-color="#464646"/><stop offset="0.9783" stop-color="#1a1a1a"/></linearGradient></defs><title>YinYang</title><g id="Layer_2" data-name="Layer 2"><g class="cls-1"><path id="path3818-0-5-0" class="cls-2" d="M14.2975,14.8164c.0005.3419-1.204.6579-3.16.829a39.0042,39.0042,0,0,1-6.3208,0c-1.9557-.1711-3.16-.4871-3.16-.829s1.2041-.6581,3.16-.8291a39.0042,39.0042,0,0,1,6.3208,0c1.9557.171,3.16.487,3.16.8291Z"/></g><path id="path2555" class="cls-3" d="M8,.2264a7.6219,7.6219,0,1,0,7.622,7.622A7.627,7.627,0,0,0,8,.2264Z"/><path id="path2555-1-56-4" class="cls-4" d="M8.0163,15.4373a7.73,7.73,0,0,0,5.07-1.9656,7.6123,7.6123,0,0,0,2.1219-3.1339A7.7044,7.7044,0,0,0,14.1763,3.36,7.7043,7.7043,0,0,0,7.8394.2625a4.2581,4.2581,0,0,1,2.9318,1.44,3.8526,3.8526,0,0,1,.8777,3.1253A3.52,3.52,0,0,1,9.69,7.3883c-1.0006.4536-2.17.3884-3.1881.8015a3.7878,3.7878,0,0,0-2.2684,3.7251A3.946,3.946,0,0,0,7.228,15.3486a3.8361,3.8361,0,0,0,.5925.0764"/><g class="cls-5"><circle id="Ellipse" class="cls-6" cx="8" cy="12.3925" r="0.8428"/></g><g class="cls-7"><circle class="cls-8" cx="8" cy="12.3925" r="0.8428"/></g><circle class="cls-8" cx="8" cy="12.2459" r="0.8428"/><g class="cls-5"><circle class="cls-9" cx="8" cy="4.2919" r="0.8428"/></g><g class="cls-7"><circle class="cls-10" cx="8" cy="4.2919" r="0.8428"/></g><circle class="cls-11" cx="8" cy="4.1453" r="0.8428"/><path id="path2555-1-56-4-2" data-name="path2555-1-56-4" class="cls-12" d="M8.0163,15.4373a7.73,7.73,0,0,0,5.07-1.9656,7.6123,7.6123,0,0,0,2.1219-3.1339A7.7044,7.7044,0,0,0,14.1763,3.36,7.962,7.962,0,0,0,7.7168.2316a4.5749,4.5749,0,0,1,3.0544,1.47,3.8526,3.8526,0,0,1,.8777,3.1253A3.52,3.52,0,0,1,9.69,7.3883c-1.0006.4536-2.17.3884-3.1881.8015a3.7878,3.7878,0,0,0-2.2684,3.7251A3.9194,3.9194,0,0,0,7.228,15.3486a6.1267,6.1267,0,0,0,.7883.0887"/><path id="path2555-2" data-name="path2555" class="cls-12" d="M8,.2264a7.6219,7.6219,0,1,0,7.622,7.622A7.627,7.627,0,0,0,8,.2264Z"/></g></svg>