<svg xmlns="http://www.w3.org/2000/svg" xmlns:xlink="http://www.w3.org/1999/xlink" viewBox="0 0 48 48"><defs><style>.cls-1{opacity:0.4;}.cls-2{fill:url(#radial-gradient);}.cls-12,.cls-3{stroke:#b3b3b3;stroke-miterlimit:10;}.cls-3{stroke-width:0.2816px;fill:url(#linear-gradient);}.cls-4{fill:url(#linear-gradient-2);}.cls-5{opacity:0.07;}.cls-6,.cls-8{fill:#fff;}.cls-6{stroke:#fff;}.cls-6,.cls-9{stroke-linecap:square;stroke-miterlimit:3;}.cls-12,.cls-6,.cls-9{stroke-width:0.3755px;}.cls-7{opacity:0.15;}.cls-10,.cls-9{fill:#242424;}.cls-9{stroke:#000;}.cls-11{fill:#383838;}.cls-12{fill:none;}</style><radialGradient id="radial-gradient" cx="-207.1509" cy="47.9755" r="0.1878" gradientTransform="matrix(99.919, 0, 0, -15.1341, 20722.163, 770.2977)" gradientUnits="userSpaceOnUse"><stop offset="0" stop-color="#3d3d3d"/><stop offset="0.8034" stop-color="#686868" stop-opacity="0.498"/><stop offset="1" stop-color="#686868" stop-opacity="0"/></radialGradient><linearGradient id="linear-gradient" x1="-207.4266" y1="48.2072" x2="-207.5088" y2="48.003" gradientTransform="matrix(120.499, 0, 0, -120.499, 25020.7469, 5827.171)" gradientUnits="userSpaceOnUse"><stop offset="0.0217" stop-color="#fff"/><stop offset="1" stop-color="#f0f0f0"/></linearGradient><linearGradient id="linear-gradient-2" x1="-207.0387" y1="48.2115" x2="-207.2282" y2="47.9528" gradientTransform="matrix(90.579, 0, 0, -120.499, 18786.944, 5827.171)" gradientUnits="userSpaceOnUse"><stop offset="0" stop-color="#464646"/><stop offset="0.9783" stop-color="#1a1a1a"/></linearGradient></defs><title>YinYang</title><g id="Layer_2" data-name="Layer 2"><g class="cls-1"><path id="path3818-0-5-0" class="cls-2" d="M42.6113,44.2329c.0015,1.0151-3.5741,1.9531-9.379,2.4607a115.7735,115.7735,0,0,1-18.7622,0c-5.8049-.5076-9.38-1.4456-9.379-2.4607C5.09,43.2177,8.6652,42.28,14.47,41.772a115.7735,115.7735,0,0,1,18.7622,0c5.8049.5076,9.38,1.4457,9.379,2.4609Z"/></g><path id="path2555" class="cls-3" d="M23.9184.9257A22.624,22.624,0,1,0,46.5426,23.55,22.6392,22.6392,0,0,0,23.9184.9257Z"/><path id="path2555-1-56-4" class="cls-4" d="M23.9668,46.0759a22.9458,22.9458,0,0,0,15.0485-5.8344,22.5927,22.5927,0,0,0,6.2984-9.3022,22.8678,22.8678,0,0,0-3.0624-20.7115A22.868,22.868,0,0,0,23.4418,1.0329a12.6389,12.6389,0,0,1,8.7023,4.2728,11.4362,11.4362,0,0,1,2.6053,9.2767,10.4489,10.4489,0,0,1-5.8148,7.602c-2.97,1.3463-6.4415,1.1529-9.4633,2.3788A11.2436,11.2436,0,0,0,12.738,35.6206a11.7131,11.7131,0,0,0,8.8888,10.1921,11.3769,11.3769,0,0,0,1.7587.2268"/><g class="cls-5"><circle id="Ellipse" class="cls-6" cx="23.9184" cy="37.0382" r="2.5017"/></g><g class="cls-7"><circle class="cls-8" cx="23.9184" cy="37.0382" r="2.5017"/></g><circle class="cls-8" cx="23.9184" cy="36.6031" r="2.5017"/><g class="cls-5"><circle class="cls-9" cx="23.9184" cy="12.9933" r="2.5017"/></g><g class="cls-7"><circle class="cls-10" cx="23.9184" cy="12.9933" r="2.5017"/></g><circle class="cls-11" cx="23.9184" cy="12.5582" r="2.5017"/><path id="path2555-1-56-4-2" data-name="path2555-1-56-4" class="cls-12" d="M23.9668,46.0759a22.9458,22.9458,0,0,0,15.0485-5.8344,22.5927,22.5927,0,0,0,6.2984-9.3022,22.8678,22.8678,0,0,0-3.0624-20.7115A23.6331,23.6331,0,0,0,23.0777.9412a13.5791,13.5791,0,0,1,9.0664,4.3645,11.4362,11.4362,0,0,1,2.6053,9.2767,10.4489,10.4489,0,0,1-5.8148,7.602c-2.97,1.3463-6.4415,1.1529-9.4633,2.3788A11.2436,11.2436,0,0,0,12.738,35.6206a11.6339,11.6339,0,0,0,8.8888,10.1921,18.1633,18.1633,0,0,0,2.34.2632"/><path id="path2555-2" data-name="path2555" class="cls-12" d="M23.9184.9257A22.624,22.624,0,1,0,46.5426,23.55,22.6392,22.6392,0,0,0,23.9184.9257Z"/></g></svg>